<?xml version="1.0" encoding="utf-8"?>
<!-- Generator: Adobe Illustrator 22.0.1, SVG Export Plug-In . SVG Version: 6.00 Build 0)  -->
<svg version="1.1" id="Layer_1" xmlns="http://www.w3.org/2000/svg" xmlns:xlink="http://www.w3.org/1999/xlink" x="0px" y="0px"
	 viewBox="0 0 1728 420" style="enable-background:new 0 0 1728 420;" xml:space="preserve">
<style type="text/css">
	.st0{opacity:0.5;fill:#F05B60;}
	.st1{opacity:0.7;fill:#F05B60;}
	.st2{opacity:0.78;fill:#FCE2E1;}
	.st3{fill:#FCE2E1;}
</style>
<g>
	<path class="st0" d="M1734,184.2c0,0-186.4-5.4-355.4,103.3s-639.7,19.9-857.1,132.1l1212.5-2.8V184.2z"/>
	<path class="st1" d="M0,416.8V6c0,0,215,214.2,512.4,257.1s552,113.3,612.5,153.7H0z"/>
	<path class="st2" d="M0,418.8V63.5c0,0,262.2,257.2,562.4,244.5c247.8-10.5,321.4,93.4,640.6,63c126.2-12,427.1-152,531-137.2
		c89.8,12.8-8.7,179.3,0,185.1H0z"/>
	<path class="st3" d="M1733.9,278.4c0,0-96.2-0.9-223.8,75.3c-127.3,76.1-484.2,66.1-650.9,66.1H1734L1733.9,278.4z"/>
	<path class="st3" d="M0.1,266.3c0,0,100.4,63,230,82.8s217.6-7,381.4,27.2s319.7,43.3,547.3,43.3H0L0.1,266.3z"/>
</g>
</svg>
